# xmcd CD database file generated by MAGIX-FreeDB-MP3_Maker_15 v2.0beta1
# 
# Track frame offsets:
#      150
#      16182
#      36822
#      51403
#      65991
#      80934
#      97398
#      114257
#      130255
#      145735
#      159083
#      180394
#      191939
#      205542
#      225193
#      237790
#      253652
# 
# Disc length: 3621 seconds
# 
# Revision: 1 
# Processed by: cddbd v1.5.2PL0 Copyright (c) Steve Scherf et al.
# Submitted via: MAGIX-FreeDB-MP3_Maker_15 v2.0beta1
# 
DISCID=e70e2311
DTITLE=Various Artist - 100 70'er Hits [CD4]
DYEAR=2009
DGENRE=Rock
TTITLE0=Lone Kellermann - Se Venedig Og Dø
TTITLE1=Baccara - Yes Sir, I Can Boogie
TTITLE2=Labelle - Lady Marmalade
TTITLE3=Johnny Nash - Tears On My Pillow
TTITLE4=Linda Lewis - It's In His Kiss
TTITLE5=The Emotions - Best Of My Love
TTITLE6=Gladys Knight and The Pimps - Best Thing That Ever Happend To Me
TTITLE7=Mott The Hoople - All The Young Dudes
TTITLE8=Odyssey - Native New Yorker
TTITLE9=Evelyn "Champagne" King - Shame
TTITLE10=Ian Hunter - Once Bitten, Twice Shy
TTITLE11=Robert Gordon - Rock Billy Boogie
TTITLE12=Sailor - Girls, Girls, Girls
TTITLE13=Gnags - Burhøns
TTITLE14=Loggins and Messina - Your Mama Don't Dance
TTITLE15=Electric Light Orchestra - Livin' Thing
TTITLE16=Boney M. - Rivers Of Babylon
EXTD=
EXTT0=
EXTT1=
EXTT2=
EXTT3=
EXTT4=
EXTT5=
EXTT6=
EXTT7=
EXTT8=
EXTT9=
EXTT10=
EXTT11=
EXTT12=
EXTT13=
EXTT14=
EXTT15=
EXTT16=
PLAYORDER=
